<?xml version="1.0" encoding="utf-8"?>
<!-- Generator: Adobe Illustrator 22.0.1, SVG Export Plug-In . SVG Version: 6.00 Build 0)  -->
<svg version="1.1" id="Layer_1" xmlns="http://www.w3.org/2000/svg" xmlns:xlink="http://www.w3.org/1999/xlink" x="0px" y="0px"
	 viewBox="0 0 180 180" enable-background="new 0 0 180 180" xml:space="preserve">
<g>
	<defs>
		<path id="SVGID_1_" d="M91.8842,27.173c-25.4959,0-46.571,19.4728-49.4467,44.4554c-0.1065,0.9203-0.1917,1.8454-0.253,2.7774
			c-0.0027,0.0864-0.008,0.1731-0.0133,0.2596c-0.0559,0.9-0.0905,1.8052-0.0932,2.7186v83.443l23.6633-32.9606V77.1471
			c0-0.0091,0-0.0175,0-0.0266c0.0163-14.5,11.7349-26.2942,26.1429-26.2942c14.4106,0,26.1373,11.7278,26.1373,26.1413
			c0,14.4118-11.7266,26.1423-26.1373,26.1423c-2.5988,0-5.4053-0.5018-7.5195-1.4337l-14.416,20.4189
			c6.8645,3.3727,14.4479,5.159,21.9355,5.159c27.5884,0,50.0378-22.4479,50.0378-50.0417
			C141.922,49.6214,119.4726,27.173,91.8842,27.173z"/>
	</defs>
	<use xlink:href="#SVGID_1_"  overflow="visible" fill="#009CFF"/>
	<clipPath id="SVGID_2_">
		<use xlink:href="#SVGID_1_"  overflow="visible"/>
	</clipPath>
	<linearGradient id="SVGID_3_" gradientUnits="userSpaceOnUse" x1="29.9413" y1="30.1937" x2="171.3332" y2="136.7401">
		<stop  offset="0" style="stop-color:#009CFF"/>
		<stop  offset="0.1837" style="stop-color:#009CFF"/>
		<stop  offset="0.3783" style="stop-color:#009CFF"/>
		<stop  offset="0.4031" style="stop-color:#0895FF"/>
		<stop  offset="0.4407" style="stop-color:#1C80FF"/>
		<stop  offset="0.4864" style="stop-color:#3F5FFF"/>
		<stop  offset="0.538" style="stop-color:#6E32FF"/>
		<stop  offset="0.587" style="stop-color:#A100FF"/>
		<stop  offset="0.6338" style="stop-color:#BA10F6"/>
		<stop  offset="0.7126" style="stop-color:#E027E9"/>
		<stop  offset="0.7762" style="stop-color:#F736E1"/>
		<stop  offset="0.8163" style="stop-color:#FF3BDE"/>
		<stop  offset="1" style="stop-color:#FF3BDE"/>
	</linearGradient>
	<path clip-path="url(#SVGID_2_)" fill="url(#SVGID_3_)" d="M93.3447,27.2124c-7.9324,15.6262-21.0573,35.9558-23.5342,53.46
		c-2.2336,15.7853-0.388,26.878,0,42.7616c6.8579,3.372,14.558,5.317,22.7335,5.317c28.314,0,51.2674-22.739,51.2674-50.7893
		C143.8115,50.1795,121.2857,27.6409,93.3447,27.2124z"/>
</g>
</svg>
